<svg width="500" height="220" viewBox="0 0 500 220" fill="none" xmlns="http://www.w3.org/2000/svg">
<rect width="500" height="220" fill="white"/>
<g filter="url(#filter0_di_2073_66)">
<path d="M131.977 36C129.992 36 128.388 37.6036 128.388 39.5891V78.6868C128.388 95.563 116.476 109.156 100.516 109.156C86.9232 109.156 72.8724 95.563 72.8724 78.6868V39.5891C72.8724 37.6036 71.2688 36 69.2834 36H48.5891C46.6036 36 45 37.6036 45 39.5891V78.6868C45 110.988 70.1234 137.486 100.592 137.486C131.29 137.486 156.337 111.065 156.337 78.6868V39.5891C156.337 37.6036 154.733 36 152.748 36H131.977Z" fill="#6361CD"/>
<path d="M125.486 141.459C124.264 141.459 123.195 142.07 122.508 143.062C117.544 150.164 109.602 154.67 100.439 154.67C92.5735 154.67 84.479 150.088 79.1336 142.91C78.4464 141.993 77.3773 141.382 76.2318 141.382H52.4066C49.8867 141.382 48.054 143.979 49.0467 146.346C57.3702 167.804 77.3773 183 100.439 183C123.73 183 143.737 167.804 151.984 146.346C152.9 143.979 151.144 141.382 148.624 141.382H125.486V141.459Z" fill="#6361CD"/>
</g>
<path d="M197.45 151.075C195.5 151.075 193.55 150.75 191.6 150.1C189.65 149.45 188.025 148.55 186.725 147.4L190.475 140.5C191.425 141.35 192.5 142.025 193.7 142.525C194.9 143.025 196.125 143.275 197.375 143.275C199.075 143.275 200.45 142.85 201.5 142C202.55 141.15 203.525 139.725 204.425 137.725L206.75 132.475L207.5 131.35L222.65 95.95H231.65L212.9 139.225C211.65 142.225 210.25 144.6 208.7 146.35C207.2 148.1 205.5 149.325 203.6 150.025C201.75 150.725 199.7 151.075 197.45 151.075ZM205.7 137.425L187.625 95.95H197.375L212.075 130.525L205.7 137.425ZM260.939 136V127.9L260.414 126.175V112C260.414 109.25 259.589 107.125 257.939 105.625C256.289 104.075 253.789 103.3 250.439 103.3C248.189 103.3 245.964 103.65 243.764 104.35C241.614 105.05 239.789 106.025 238.289 107.275L234.614 100.45C236.764 98.8 239.314 97.575 242.264 96.775C245.264 95.925 248.364 95.5 251.564 95.5C257.364 95.5 261.839 96.9 264.989 99.7C268.189 102.45 269.789 106.725 269.789 112.525V136H260.939ZM248.339 136.525C245.339 136.525 242.714 136.025 240.464 135.025C238.214 133.975 236.464 132.55 235.214 130.75C234.014 128.9 233.414 126.825 233.414 124.525C233.414 122.275 233.939 120.25 234.989 118.45C236.089 116.65 237.864 115.225 240.314 114.175C242.764 113.125 246.014 112.6 250.064 112.6H261.689V118.825H250.739C247.539 118.825 245.389 119.35 244.289 120.4C243.189 121.4 242.639 122.65 242.639 124.15C242.639 125.85 243.314 127.2 244.664 128.2C246.014 129.2 247.889 129.7 250.289 129.7C252.589 129.7 254.639 129.175 256.439 128.125C258.289 127.075 259.614 125.525 260.414 123.475L261.989 129.1C261.089 131.45 259.464 133.275 257.114 134.575C254.814 135.875 251.889 136.525 248.339 136.525ZM284.388 151.075C282.438 151.075 280.488 150.75 278.538 150.1C276.588 149.45 274.963 148.55 273.663 147.4L277.413 140.5C278.363 141.35 279.438 142.025 280.638 142.525C281.838 143.025 283.063 143.275 284.313 143.275C286.013 143.275 287.388 142.85 288.438 142C289.488 141.15 290.463 139.725 291.363 137.725L293.688 132.475L294.438 131.35L309.588 95.95H318.588L299.838 139.225C298.588 142.225 297.188 144.6 295.638 146.35C294.138 148.1 292.438 149.325 290.538 150.025C288.688 150.725 286.638 151.075 284.388 151.075ZM292.638 137.425L274.563 95.95H284.313L299.013 130.525L292.638 137.425ZM347.878 136V127.9L347.353 126.175V112C347.353 109.25 346.528 107.125 344.878 105.625C343.228 104.075 340.728 103.3 337.378 103.3C335.128 103.3 332.903 103.65 330.703 104.35C328.553 105.05 326.728 106.025 325.228 107.275L321.553 100.45C323.703 98.8 326.253 97.575 329.203 96.775C332.203 95.925 335.303 95.5 338.503 95.5C344.303 95.5 348.778 96.9 351.928 99.7C355.128 102.45 356.728 106.725 356.728 112.525V136H347.878ZM335.278 136.525C332.278 136.525 329.653 136.025 327.403 135.025C325.153 133.975 323.403 132.55 322.153 130.75C320.953 128.9 320.353 126.825 320.353 124.525C320.353 122.275 320.878 120.25 321.928 118.45C323.028 116.65 324.803 115.225 327.253 114.175C329.703 113.125 332.953 112.6 337.003 112.6H348.628V118.825H337.678C334.478 118.825 332.328 119.35 331.228 120.4C330.128 121.4 329.578 122.65 329.578 124.15C329.578 125.85 330.253 127.2 331.603 128.2C332.953 129.2 334.828 129.7 337.228 129.7C339.528 129.7 341.578 129.175 343.378 128.125C345.228 127.075 346.553 125.525 347.353 123.475L348.928 129.1C348.028 131.45 346.403 133.275 344.053 134.575C341.753 135.875 338.828 136.525 335.278 136.525ZM394.184 136.75C390.084 136.75 386.309 136.1 382.859 134.8C379.459 133.45 376.484 131.575 373.934 129.175C371.384 126.725 369.409 123.85 368.009 120.55C366.609 117.25 365.909 113.65 365.909 109.75C365.909 105.85 366.609 102.25 368.009 98.95C369.409 95.65 371.384 92.8 373.934 90.4C376.534 87.95 379.559 86.075 383.009 84.775C386.459 83.425 390.234 82.75 394.334 82.75C398.784 82.75 402.784 83.475 406.334 84.925C409.934 86.375 412.959 88.5 415.409 91.3L409.259 97.3C407.209 95.25 404.984 93.75 402.584 92.8C400.234 91.8 397.634 91.3 394.784 91.3C392.034 91.3 389.484 91.75 387.134 92.65C384.784 93.55 382.759 94.825 381.059 96.475C379.359 98.125 378.034 100.075 377.084 102.325C376.184 104.575 375.734 107.05 375.734 109.75C375.734 112.4 376.184 114.85 377.084 117.1C378.034 119.35 379.359 121.325 381.059 123.025C382.759 124.675 384.759 125.95 387.059 126.85C389.359 127.75 391.909 128.2 394.709 128.2C397.309 128.2 399.809 127.8 402.209 127C404.659 126.15 406.984 124.75 409.184 122.8L414.734 130.075C411.984 132.275 408.784 133.95 405.134 135.1C401.534 136.2 397.884 136.75 394.184 136.75ZM405.509 128.8V109.15H414.734V130.075L405.509 128.8ZM444.694 136.525C440.594 136.525 436.944 135.65 433.744 133.9C430.544 132.1 428.019 129.65 426.169 126.55C424.319 123.45 423.394 119.925 423.394 115.975C423.394 111.975 424.319 108.45 426.169 105.4C428.019 102.3 430.544 99.875 433.744 98.125C436.944 96.375 440.594 95.5 444.694 95.5C448.844 95.5 452.519 96.375 455.719 98.125C458.969 99.875 461.494 102.275 463.294 105.325C465.144 108.375 466.069 111.925 466.069 115.975C466.069 119.925 465.144 123.45 463.294 126.55C461.494 129.65 458.969 132.1 455.719 133.9C452.519 135.65 448.844 136.525 444.694 136.525ZM444.694 128.5C446.994 128.5 449.044 128 450.844 127C452.644 126 454.044 124.55 455.044 122.65C456.094 120.75 456.619 118.525 456.619 115.975C456.619 113.375 456.094 111.15 455.044 109.3C454.044 107.4 452.644 105.95 450.844 104.95C449.044 103.95 447.019 103.45 444.769 103.45C442.469 103.45 440.419 103.95 438.619 104.95C436.869 105.95 435.469 107.4 434.419 109.3C433.369 111.15 432.844 113.375 432.844 115.975C432.844 118.525 433.369 120.75 434.419 122.65C435.469 124.55 436.869 126 438.619 127C440.419 128 442.444 128.5 444.694 128.5Z" fill="#6361CD"/>
<defs>
<filter id="filter0_di_2073_66" x="41" y="36" width="119.337" height="155" filterUnits="userSpaceOnUse" color-interpolation-filters="sRGB">
<feFlood flood-opacity="0" result="BackgroundImageFix"/>
<feColorMatrix in="SourceAlpha" type="matrix" values="0 0 0 0 0 0 0 0 0 0 0 0 0 0 0 0 0 0 127 0" result="hardAlpha"/>
<feOffset dy="4"/>
<feGaussianBlur stdDeviation="2"/>
<feComposite in2="hardAlpha" operator="out"/>
<feColorMatrix type="matrix" values="0 0 0 0 0 0 0 0 0 0 0 0 0 0 0 0 0 0 0.25 0"/>
<feBlend mode="normal" in2="BackgroundImageFix" result="effect1_dropShadow_2073_66"/>
<feBlend mode="normal" in="SourceGraphic" in2="effect1_dropShadow_2073_66" result="shape"/>
<feColorMatrix in="SourceAlpha" type="matrix" values="0 0 0 0 0 0 0 0 0 0 0 0 0 0 0 0 0 0 127 0" result="hardAlpha"/>
<feOffset dy="2"/>
<feGaussianBlur stdDeviation="3"/>
<feComposite in2="hardAlpha" operator="arithmetic" k2="-1" k3="1"/>
<feColorMatrix type="matrix" values="0 0 0 0 0 0 0 0 0 0 0 0 0 0 0 0 0 0 0.25 0"/>
<feBlend mode="normal" in2="shape" result="effect2_innerShadow_2073_66"/>
</filter>
</defs>
</svg>
