<svg width="500" height="220" viewBox="0 0 500 220" fill="none" xmlns="http://www.w3.org/2000/svg">
<rect width="500" height="220" fill="#6361CD"/>
<g filter="url(#filter0_di_2073_65)">
<path d="M135.977 36C133.992 36 132.388 37.6036 132.388 39.5891V78.6868C132.388 95.563 120.476 109.156 104.516 109.156C90.9232 109.156 76.8724 95.563 76.8724 78.6868V39.5891C76.8724 37.6036 75.2688 36 73.2834 36H52.5891C50.6036 36 49 37.6036 49 39.5891V78.6868C49 110.988 74.1234 137.486 104.592 137.486C135.29 137.486 160.337 111.065 160.337 78.6868V39.5891C160.337 37.6036 158.733 36 156.748 36H135.977Z" fill="white"/>
<path d="M129.486 141.459C128.264 141.459 127.195 142.07 126.508 143.062C121.544 150.164 113.602 154.67 104.439 154.67C96.5735 154.67 88.479 150.088 83.1336 142.91C82.4464 141.993 81.3773 141.382 80.2318 141.382H56.4066C53.8867 141.382 52.054 143.979 53.0467 146.346C61.3702 167.804 81.3773 183 104.439 183C127.73 183 147.737 167.804 155.984 146.346C156.9 143.979 155.144 141.382 152.624 141.382H129.486V141.459Z" fill="white"/>
</g>
<path d="M201.45 151.075C199.5 151.075 197.55 150.75 195.6 150.1C193.65 149.45 192.025 148.55 190.725 147.4L194.475 140.5C195.425 141.35 196.5 142.025 197.7 142.525C198.9 143.025 200.125 143.275 201.375 143.275C203.075 143.275 204.45 142.85 205.5 142C206.55 141.15 207.525 139.725 208.425 137.725L210.75 132.475L211.5 131.35L226.65 95.95H235.65L216.9 139.225C215.65 142.225 214.25 144.6 212.7 146.35C211.2 148.1 209.5 149.325 207.6 150.025C205.75 150.725 203.7 151.075 201.45 151.075ZM209.7 137.425L191.625 95.95H201.375L216.075 130.525L209.7 137.425ZM264.939 136V127.9L264.414 126.175V112C264.414 109.25 263.589 107.125 261.939 105.625C260.289 104.075 257.789 103.3 254.439 103.3C252.189 103.3 249.964 103.65 247.764 104.35C245.614 105.05 243.789 106.025 242.289 107.275L238.614 100.45C240.764 98.8 243.314 97.575 246.264 96.775C249.264 95.925 252.364 95.5 255.564 95.5C261.364 95.5 265.839 96.9 268.989 99.7C272.189 102.45 273.789 106.725 273.789 112.525V136H264.939ZM252.339 136.525C249.339 136.525 246.714 136.025 244.464 135.025C242.214 133.975 240.464 132.55 239.214 130.75C238.014 128.9 237.414 126.825 237.414 124.525C237.414 122.275 237.939 120.25 238.989 118.45C240.089 116.65 241.864 115.225 244.314 114.175C246.764 113.125 250.014 112.6 254.064 112.6H265.689V118.825H254.739C251.539 118.825 249.389 119.35 248.289 120.4C247.189 121.4 246.639 122.65 246.639 124.15C246.639 125.85 247.314 127.2 248.664 128.2C250.014 129.2 251.889 129.7 254.289 129.7C256.589 129.7 258.639 129.175 260.439 128.125C262.289 127.075 263.614 125.525 264.414 123.475L265.989 129.1C265.089 131.45 263.464 133.275 261.114 134.575C258.814 135.875 255.889 136.525 252.339 136.525ZM288.388 151.075C286.438 151.075 284.488 150.75 282.538 150.1C280.588 149.45 278.963 148.55 277.663 147.4L281.413 140.5C282.363 141.35 283.438 142.025 284.638 142.525C285.838 143.025 287.063 143.275 288.313 143.275C290.013 143.275 291.388 142.85 292.438 142C293.488 141.15 294.463 139.725 295.363 137.725L297.688 132.475L298.438 131.35L313.588 95.95H322.588L303.838 139.225C302.588 142.225 301.188 144.6 299.638 146.35C298.138 148.1 296.438 149.325 294.538 150.025C292.688 150.725 290.638 151.075 288.388 151.075ZM296.638 137.425L278.563 95.95H288.313L303.013 130.525L296.638 137.425ZM351.878 136V127.9L351.353 126.175V112C351.353 109.25 350.528 107.125 348.878 105.625C347.228 104.075 344.728 103.3 341.378 103.3C339.128 103.3 336.903 103.65 334.703 104.35C332.553 105.05 330.728 106.025 329.228 107.275L325.553 100.45C327.703 98.8 330.253 97.575 333.203 96.775C336.203 95.925 339.303 95.5 342.503 95.5C348.303 95.5 352.778 96.9 355.928 99.7C359.128 102.45 360.728 106.725 360.728 112.525V136H351.878ZM339.278 136.525C336.278 136.525 333.653 136.025 331.403 135.025C329.153 133.975 327.403 132.55 326.153 130.75C324.953 128.9 324.353 126.825 324.353 124.525C324.353 122.275 324.878 120.25 325.928 118.45C327.028 116.65 328.803 115.225 331.253 114.175C333.703 113.125 336.953 112.6 341.003 112.6H352.628V118.825H341.678C338.478 118.825 336.328 119.35 335.228 120.4C334.128 121.4 333.578 122.65 333.578 124.15C333.578 125.85 334.253 127.2 335.603 128.2C336.953 129.2 338.828 129.7 341.228 129.7C343.528 129.7 345.578 129.175 347.378 128.125C349.228 127.075 350.553 125.525 351.353 123.475L352.928 129.1C352.028 131.45 350.403 133.275 348.053 134.575C345.753 135.875 342.828 136.525 339.278 136.525ZM398.184 136.75C394.084 136.75 390.309 136.1 386.859 134.8C383.459 133.45 380.484 131.575 377.934 129.175C375.384 126.725 373.409 123.85 372.009 120.55C370.609 117.25 369.909 113.65 369.909 109.75C369.909 105.85 370.609 102.25 372.009 98.95C373.409 95.65 375.384 92.8 377.934 90.4C380.534 87.95 383.559 86.075 387.009 84.775C390.459 83.425 394.234 82.75 398.334 82.75C402.784 82.75 406.784 83.475 410.334 84.925C413.934 86.375 416.959 88.5 419.409 91.3L413.259 97.3C411.209 95.25 408.984 93.75 406.584 92.8C404.234 91.8 401.634 91.3 398.784 91.3C396.034 91.3 393.484 91.75 391.134 92.65C388.784 93.55 386.759 94.825 385.059 96.475C383.359 98.125 382.034 100.075 381.084 102.325C380.184 104.575 379.734 107.05 379.734 109.75C379.734 112.4 380.184 114.85 381.084 117.1C382.034 119.35 383.359 121.325 385.059 123.025C386.759 124.675 388.759 125.95 391.059 126.85C393.359 127.75 395.909 128.2 398.709 128.2C401.309 128.2 403.809 127.8 406.209 127C408.659 126.15 410.984 124.75 413.184 122.8L418.734 130.075C415.984 132.275 412.784 133.95 409.134 135.1C405.534 136.2 401.884 136.75 398.184 136.75ZM409.509 128.8V109.15H418.734V130.075L409.509 128.8ZM448.694 136.525C444.594 136.525 440.944 135.65 437.744 133.9C434.544 132.1 432.019 129.65 430.169 126.55C428.319 123.45 427.394 119.925 427.394 115.975C427.394 111.975 428.319 108.45 430.169 105.4C432.019 102.3 434.544 99.875 437.744 98.125C440.944 96.375 444.594 95.5 448.694 95.5C452.844 95.5 456.519 96.375 459.719 98.125C462.969 99.875 465.494 102.275 467.294 105.325C469.144 108.375 470.069 111.925 470.069 115.975C470.069 119.925 469.144 123.45 467.294 126.55C465.494 129.65 462.969 132.1 459.719 133.9C456.519 135.65 452.844 136.525 448.694 136.525ZM448.694 128.5C450.994 128.5 453.044 128 454.844 127C456.644 126 458.044 124.55 459.044 122.65C460.094 120.75 460.619 118.525 460.619 115.975C460.619 113.375 460.094 111.15 459.044 109.3C458.044 107.4 456.644 105.95 454.844 104.95C453.044 103.95 451.019 103.45 448.769 103.45C446.469 103.45 444.419 103.95 442.619 104.95C440.869 105.95 439.469 107.4 438.419 109.3C437.369 111.15 436.844 113.375 436.844 115.975C436.844 118.525 437.369 120.75 438.419 122.65C439.469 124.55 440.869 126 442.619 127C444.419 128 446.444 128.5 448.694 128.5Z" fill="white"/>
<defs>
<filter id="filter0_di_2073_65" x="45" y="36" width="119.337" height="155" filterUnits="userSpaceOnUse" color-interpolation-filters="sRGB">
<feFlood flood-opacity="0" result="BackgroundImageFix"/>
<feColorMatrix in="SourceAlpha" type="matrix" values="0 0 0 0 0 0 0 0 0 0 0 0 0 0 0 0 0 0 127 0" result="hardAlpha"/>
<feOffset dy="4"/>
<feGaussianBlur stdDeviation="2"/>
<feComposite in2="hardAlpha" operator="out"/>
<feColorMatrix type="matrix" values="0 0 0 0 0 0 0 0 0 0 0 0 0 0 0 0 0 0 0.25 0"/>
<feBlend mode="normal" in2="BackgroundImageFix" result="effect1_dropShadow_2073_65"/>
<feBlend mode="normal" in="SourceGraphic" in2="effect1_dropShadow_2073_65" result="shape"/>
<feColorMatrix in="SourceAlpha" type="matrix" values="0 0 0 0 0 0 0 0 0 0 0 0 0 0 0 0 0 0 127 0" result="hardAlpha"/>
<feOffset dy="2"/>
<feGaussianBlur stdDeviation="3"/>
<feComposite in2="hardAlpha" operator="arithmetic" k2="-1" k3="1"/>
<feColorMatrix type="matrix" values="0 0 0 0 0 0 0 0 0 0 0 0 0 0 0 0 0 0 0.25 0"/>
<feBlend mode="normal" in2="shape" result="effect2_innerShadow_2073_65"/>
</filter>
</defs>
</svg>
