<svg width="625" height="220" viewBox="0 0 625 220" fill="none" xmlns="http://www.w3.org/2000/svg">
<rect width="220" height="220" rx="50" fill="#6361CD"/>
<g filter="url(#filter0_di_2131_47)">
<path d="M140.977 36C138.992 36 137.388 37.6036 137.388 39.5891V78.6868C137.388 95.563 125.476 109.156 109.516 109.156C95.9232 109.156 81.8724 95.563 81.8724 78.6868V39.5891C81.8724 37.6036 80.2688 36 78.2834 36H57.5891C55.6036 36 54 37.6036 54 39.5891V78.6868C54 110.988 79.1234 137.486 109.592 137.486C140.29 137.486 165.337 111.065 165.337 78.6868V39.5891C165.337 37.6036 163.733 36 161.748 36H140.977Z" fill="white"/>
<path d="M134.486 141.459C133.264 141.459 132.195 142.07 131.508 143.062C126.544 150.164 118.602 154.67 109.439 154.67C101.573 154.67 93.479 150.088 88.1336 142.91C87.4463 141.993 86.3772 141.382 85.2318 141.382H61.4066C58.8866 141.382 57.0539 143.979 58.0466 146.346C66.3702 167.804 86.3772 183 109.439 183C132.729 183 152.737 167.804 160.984 146.346C161.9 143.979 160.144 141.382 157.624 141.382H134.486V141.459Z" fill="white"/>
</g>
<path d="M262.6 166.1C260 166.1 257.4 165.667 254.8 164.8C252.2 163.933 250.033 162.733 248.3 161.2L253.3 152C254.567 153.133 256 154.033 257.6 154.7C259.2 155.367 260.833 155.7 262.5 155.7C264.767 155.7 266.6 155.133 268 154C269.4 152.867 270.7 150.967 271.9 148.3L275 141.3L276 139.8L296.2 92.6H308.2L283.2 150.3C281.533 154.3 279.667 157.467 277.6 159.8C275.6 162.133 273.333 163.767 270.8 164.7C268.333 165.633 265.6 166.1 262.6 166.1ZM273.6 147.9L249.5 92.6H262.5L282.1 138.7L273.6 147.9ZM347.252 146V135.2L346.552 132.9V114C346.552 110.333 345.452 107.5 343.252 105.5C341.052 103.433 337.719 102.4 333.252 102.4C330.252 102.4 327.286 102.867 324.352 103.8C321.486 104.733 319.052 106.033 317.052 107.7L312.152 98.6C315.019 96.4 318.419 94.7667 322.352 93.7C326.352 92.5667 330.486 92 334.752 92C342.486 92 348.452 93.8667 352.652 97.6C356.919 101.267 359.052 106.967 359.052 114.7V146H347.252ZM330.452 146.7C326.452 146.7 322.952 146.033 319.952 144.7C316.952 143.3 314.619 141.4 312.952 139C311.352 136.533 310.552 133.767 310.552 130.7C310.552 127.7 311.252 125 312.652 122.6C314.119 120.2 316.486 118.3 319.752 116.9C323.019 115.5 327.352 114.8 332.752 114.8H348.252V123.1H333.652C329.386 123.1 326.519 123.8 325.052 125.2C323.586 126.533 322.852 128.2 322.852 130.2C322.852 132.467 323.752 134.267 325.552 135.6C327.352 136.933 329.852 137.6 333.052 137.6C336.119 137.6 338.852 136.9 341.252 135.5C343.719 134.1 345.486 132.033 346.552 129.3L348.652 136.8C347.452 139.933 345.286 142.367 342.152 144.1C339.086 145.833 335.186 146.7 330.452 146.7ZM378.518 166.1C375.918 166.1 373.318 165.667 370.718 164.8C368.118 163.933 365.951 162.733 364.218 161.2L369.218 152C370.485 153.133 371.918 154.033 373.518 154.7C375.118 155.367 376.751 155.7 378.418 155.7C380.685 155.7 382.518 155.133 383.918 154C385.318 152.867 386.618 150.967 387.818 148.3L390.918 141.3L391.918 139.8L412.118 92.6H424.118L399.118 150.3C397.451 154.3 395.585 157.467 393.518 159.8C391.518 162.133 389.251 163.767 386.718 164.7C384.251 165.633 381.518 166.1 378.518 166.1ZM389.518 147.9L365.418 92.6H378.418L398.018 138.7L389.518 147.9ZM463.17 146V135.2L462.47 132.9V114C462.47 110.333 461.37 107.5 459.17 105.5C456.97 103.433 453.637 102.4 449.17 102.4C446.17 102.4 443.204 102.867 440.27 103.8C437.404 104.733 434.97 106.033 432.97 107.7L428.07 98.6C430.937 96.4 434.337 94.7667 438.27 93.7C442.27 92.5667 446.404 92 450.67 92C458.404 92 464.37 93.8667 468.57 97.6C472.837 101.267 474.97 106.967 474.97 114.7V146H463.17ZM446.37 146.7C442.37 146.7 438.87 146.033 435.87 144.7C432.87 143.3 430.537 141.4 428.87 139C427.27 136.533 426.47 133.767 426.47 130.7C426.47 127.7 427.17 125 428.57 122.6C430.037 120.2 432.404 118.3 435.67 116.9C438.937 115.5 443.27 114.8 448.67 114.8H464.17V123.1H449.57C445.304 123.1 442.437 123.8 440.97 125.2C439.504 126.533 438.77 128.2 438.77 130.2C438.77 132.467 439.67 134.267 441.47 135.6C443.27 136.933 445.77 137.6 448.97 137.6C452.037 137.6 454.77 136.9 457.17 135.5C459.637 134.1 461.404 132.033 462.47 129.3L464.57 136.8C463.37 139.933 461.204 142.367 458.07 144.1C455.004 145.833 451.104 146.7 446.37 146.7ZM524.913 147C519.446 147 514.413 146.133 509.813 144.4C505.279 142.6 501.313 140.1 497.913 136.9C494.513 133.633 491.879 129.8 490.013 125.4C488.146 121 487.213 116.2 487.213 111C487.213 105.8 488.146 101 490.013 96.6C491.879 92.2 494.513 88.4 497.913 85.2C501.379 81.9333 505.413 79.4333 510.013 77.7C514.613 75.9 519.646 75 525.113 75C531.046 75 536.379 75.9667 541.113 77.9C545.913 79.8333 549.946 82.6667 553.213 86.4L545.013 94.4C542.279 91.6667 539.313 89.6667 536.113 88.4C532.979 87.0667 529.513 86.4 525.713 86.4C522.046 86.4 518.646 87 515.513 88.2C512.379 89.4 509.679 91.1 507.413 93.3C505.146 95.5 503.379 98.1 502.113 101.1C500.913 104.1 500.313 107.4 500.313 111C500.313 114.533 500.913 117.8 502.113 120.8C503.379 123.8 505.146 126.433 507.413 128.7C509.679 130.9 512.346 132.6 515.413 133.8C518.479 135 521.879 135.6 525.613 135.6C529.079 135.6 532.413 135.067 535.612 134C538.879 132.867 541.979 131 544.913 128.4L552.313 138.1C548.646 141.033 544.379 143.267 539.513 144.8C534.713 146.267 529.846 147 524.913 147ZM540.013 136.4V110.2H552.313V138.1L540.013 136.4ZM592.259 146.7C586.792 146.7 581.925 145.533 577.659 143.2C573.392 140.8 570.025 137.533 567.559 133.4C565.092 129.267 563.859 124.567 563.859 119.3C563.859 113.967 565.092 109.267 567.559 105.2C570.025 101.067 573.392 97.8333 577.659 95.5C581.925 93.1667 586.792 92 592.259 92C597.792 92 602.692 93.1667 606.959 95.5C611.292 97.8333 614.659 101.033 617.059 105.1C619.525 109.167 620.759 113.9 620.759 119.3C620.759 124.567 619.525 129.267 617.059 133.4C614.659 137.533 611.292 140.8 606.959 143.2C602.692 145.533 597.792 146.7 592.259 146.7ZM592.259 136C595.325 136 598.059 135.333 600.459 134C602.859 132.667 604.725 130.733 606.059 128.2C607.459 125.667 608.159 122.7 608.159 119.3C608.159 115.833 607.459 112.867 606.059 110.4C604.725 107.867 602.859 105.933 600.459 104.6C598.059 103.267 595.359 102.6 592.359 102.6C589.292 102.6 586.559 103.267 584.159 104.6C581.825 105.933 579.959 107.867 578.559 110.4C577.159 112.867 576.459 115.833 576.459 119.3C576.459 122.7 577.159 125.667 578.559 128.2C579.959 130.733 581.825 132.667 584.159 134C586.559 135.333 589.259 136 592.259 136Z" fill="#6361CD"/>
<defs>
<filter id="filter0_di_2131_47" x="50" y="36" width="119.337" height="155" filterUnits="userSpaceOnUse" color-interpolation-filters="sRGB">
<feFlood flood-opacity="0" result="BackgroundImageFix"/>
<feColorMatrix in="SourceAlpha" type="matrix" values="0 0 0 0 0 0 0 0 0 0 0 0 0 0 0 0 0 0 127 0" result="hardAlpha"/>
<feOffset dy="4"/>
<feGaussianBlur stdDeviation="2"/>
<feComposite in2="hardAlpha" operator="out"/>
<feColorMatrix type="matrix" values="0 0 0 0 0 0 0 0 0 0 0 0 0 0 0 0 0 0 0.25 0"/>
<feBlend mode="normal" in2="BackgroundImageFix" result="effect1_dropShadow_2131_47"/>
<feBlend mode="normal" in="SourceGraphic" in2="effect1_dropShadow_2131_47" result="shape"/>
<feColorMatrix in="SourceAlpha" type="matrix" values="0 0 0 0 0 0 0 0 0 0 0 0 0 0 0 0 0 0 127 0" result="hardAlpha"/>
<feOffset dy="2"/>
<feGaussianBlur stdDeviation="3"/>
<feComposite in2="hardAlpha" operator="arithmetic" k2="-1" k3="1"/>
<feColorMatrix type="matrix" values="0 0 0 0 0 0 0 0 0 0 0 0 0 0 0 0 0 0 0.25 0"/>
<feBlend mode="normal" in2="shape" result="effect2_innerShadow_2131_47"/>
</filter>
</defs>
</svg>
