<svg width="424" height="147" viewBox="0 0 424 147" fill="none" xmlns="http://www.w3.org/2000/svg">
<g filter="url(#filter0_i_2131_8)">
<path d="M86.9773 0C84.9918 0 83.3882 1.60362 83.3882 3.58905V42.6868C83.3882 59.563 71.4756 73.1556 55.5158 73.1556C41.9232 73.1556 27.8724 59.563 27.8724 42.6868V3.58905C27.8724 1.60362 26.2688 0 24.2834 0H3.58906C1.60362 0 0 1.60362 0 3.58905V42.6868C0 74.9883 25.1234 101.486 55.5921 101.486C86.29 101.486 111.337 75.0647 111.337 42.6868V3.58905C111.337 1.60362 109.733 0 107.748 0H86.9773Z" fill="#6361CD"/>
<path d="M80.4859 105.459C79.2641 105.459 78.195 106.07 77.5077 107.062C72.5441 114.164 64.6024 118.67 55.4389 118.67C47.5735 118.67 39.479 114.088 34.1336 106.91C33.4464 105.993 32.3773 105.382 31.2319 105.382H7.40665C4.88667 105.382 3.05396 107.979 4.04668 110.346C12.3702 131.804 32.3773 147 55.4389 147C78.7295 147 98.7366 131.804 106.984 110.346C107.9 107.979 106.144 105.382 103.624 105.382H80.4859V105.459Z" fill="#6361CD"/>
</g>
<path d="M152.45 115.075C150.5 115.075 148.55 114.75 146.6 114.1C144.65 113.45 143.025 112.55 141.725 111.4L145.475 104.5C146.425 105.35 147.5 106.025 148.7 106.525C149.9 107.025 151.125 107.275 152.375 107.275C154.075 107.275 155.45 106.85 156.5 106C157.55 105.15 158.525 103.725 159.425 101.725L161.75 96.475L162.5 95.35L177.65 59.95H186.65L167.9 103.225C166.65 106.225 165.25 108.6 163.7 110.35C162.2 112.1 160.5 113.325 158.6 114.025C156.75 114.725 154.7 115.075 152.45 115.075ZM160.7 101.425L142.625 59.95H152.375L167.075 94.525L160.7 101.425ZM215.939 100V91.9L215.414 90.175V76C215.414 73.25 214.589 71.125 212.939 69.625C211.289 68.075 208.789 67.3 205.439 67.3C203.189 67.3 200.964 67.65 198.764 68.35C196.614 69.05 194.789 70.025 193.289 71.275L189.614 64.45C191.764 62.8 194.314 61.575 197.264 60.775C200.264 59.925 203.364 59.5 206.564 59.5C212.364 59.5 216.839 60.9 219.989 63.7C223.189 66.45 224.789 70.725 224.789 76.525V100H215.939ZM203.339 100.525C200.339 100.525 197.714 100.025 195.464 99.025C193.214 97.975 191.464 96.55 190.214 94.75C189.014 92.9 188.414 90.825 188.414 88.525C188.414 86.275 188.939 84.25 189.989 82.45C191.089 80.65 192.864 79.225 195.314 78.175C197.764 77.125 201.014 76.6 205.064 76.6H216.689V82.825H205.739C202.539 82.825 200.389 83.35 199.289 84.4C198.189 85.4 197.639 86.65 197.639 88.15C197.639 89.85 198.314 91.2 199.664 92.2C201.014 93.2 202.889 93.7 205.289 93.7C207.589 93.7 209.639 93.175 211.439 92.125C213.289 91.075 214.614 89.525 215.414 87.475L216.989 93.1C216.089 95.45 214.464 97.275 212.114 98.575C209.814 99.875 206.889 100.525 203.339 100.525ZM239.388 115.075C237.438 115.075 235.488 114.75 233.538 114.1C231.588 113.45 229.963 112.55 228.663 111.4L232.413 104.5C233.363 105.35 234.438 106.025 235.638 106.525C236.838 107.025 238.063 107.275 239.313 107.275C241.013 107.275 242.388 106.85 243.438 106C244.488 105.15 245.463 103.725 246.363 101.725L248.688 96.475L249.438 95.35L264.588 59.95H273.588L254.838 103.225C253.588 106.225 252.188 108.6 250.638 110.35C249.138 112.1 247.438 113.325 245.538 114.025C243.688 114.725 241.638 115.075 239.388 115.075ZM247.638 101.425L229.563 59.95H239.313L254.013 94.525L247.638 101.425ZM302.878 100V91.9L302.353 90.175V76C302.353 73.25 301.528 71.125 299.878 69.625C298.228 68.075 295.728 67.3 292.378 67.3C290.128 67.3 287.903 67.65 285.703 68.35C283.553 69.05 281.728 70.025 280.228 71.275L276.553 64.45C278.703 62.8 281.253 61.575 284.203 60.775C287.203 59.925 290.303 59.5 293.503 59.5C299.303 59.5 303.778 60.9 306.928 63.7C310.128 66.45 311.728 70.725 311.728 76.525V100H302.878ZM290.278 100.525C287.278 100.525 284.653 100.025 282.403 99.025C280.153 97.975 278.403 96.55 277.153 94.75C275.953 92.9 275.353 90.825 275.353 88.525C275.353 86.275 275.878 84.25 276.928 82.45C278.028 80.65 279.803 79.225 282.253 78.175C284.703 77.125 287.953 76.6 292.003 76.6H303.628V82.825H292.678C289.478 82.825 287.328 83.35 286.228 84.4C285.128 85.4 284.578 86.65 284.578 88.15C284.578 89.85 285.253 91.2 286.603 92.2C287.953 93.2 289.828 93.7 292.228 93.7C294.528 93.7 296.578 93.175 298.378 92.125C300.228 91.075 301.553 89.525 302.353 87.475L303.928 93.1C303.028 95.45 301.403 97.275 299.053 98.575C296.753 99.875 293.828 100.525 290.278 100.525ZM349.184 100.75C345.084 100.75 341.309 100.1 337.859 98.8C334.459 97.45 331.484 95.575 328.934 93.175C326.384 90.725 324.409 87.85 323.009 84.55C321.609 81.25 320.909 77.65 320.909 73.75C320.909 69.85 321.609 66.25 323.009 62.95C324.409 59.65 326.384 56.8 328.934 54.4C331.534 51.95 334.559 50.075 338.009 48.775C341.459 47.425 345.234 46.75 349.334 46.75C353.784 46.75 357.784 47.475 361.334 48.925C364.934 50.375 367.959 52.5 370.409 55.3L364.259 61.3C362.209 59.25 359.984 57.75 357.584 56.8C355.234 55.8 352.634 55.3 349.784 55.3C347.034 55.3 344.484 55.75 342.134 56.65C339.784 57.55 337.759 58.825 336.059 60.475C334.359 62.125 333.034 64.075 332.084 66.325C331.184 68.575 330.734 71.05 330.734 73.75C330.734 76.4 331.184 78.85 332.084 81.1C333.034 83.35 334.359 85.325 336.059 87.025C337.759 88.675 339.759 89.95 342.059 90.85C344.359 91.75 346.909 92.2 349.709 92.2C352.309 92.2 354.809 91.8 357.209 91C359.659 90.15 361.984 88.75 364.184 86.8L369.734 94.075C366.984 96.275 363.784 97.95 360.134 99.1C356.534 100.2 352.884 100.75 349.184 100.75ZM360.509 92.8V73.15H369.734V94.075L360.509 92.8ZM399.694 100.525C395.594 100.525 391.944 99.65 388.744 97.9C385.544 96.1 383.019 93.65 381.169 90.55C379.319 87.45 378.394 83.925 378.394 79.975C378.394 75.975 379.319 72.45 381.169 69.4C383.019 66.3 385.544 63.875 388.744 62.125C391.944 60.375 395.594 59.5 399.694 59.5C403.844 59.5 407.519 60.375 410.719 62.125C413.969 63.875 416.494 66.275 418.294 69.325C420.144 72.375 421.069 75.925 421.069 79.975C421.069 83.925 420.144 87.45 418.294 90.55C416.494 93.65 413.969 96.1 410.719 97.9C407.519 99.65 403.844 100.525 399.694 100.525ZM399.694 92.5C401.994 92.5 404.044 92 405.844 91C407.644 90 409.044 88.55 410.044 86.65C411.094 84.75 411.619 82.525 411.619 79.975C411.619 77.375 411.094 75.15 410.044 73.3C409.044 71.4 407.644 69.95 405.844 68.95C404.044 67.95 402.019 67.45 399.769 67.45C397.469 67.45 395.419 67.95 393.619 68.95C391.869 69.95 390.469 71.4 389.419 73.3C388.369 75.15 387.844 77.375 387.844 79.975C387.844 82.525 388.369 84.75 389.419 86.65C390.469 88.55 391.869 90 393.619 91C395.419 92 397.444 92.5 399.694 92.5Z" fill="#6361CD"/>
<defs>
<filter id="filter0_i_2131_8" x="0" y="0" width="111.337" height="149" filterUnits="userSpaceOnUse" color-interpolation-filters="sRGB">
<feFlood flood-opacity="0" result="BackgroundImageFix"/>
<feBlend mode="normal" in="SourceGraphic" in2="BackgroundImageFix" result="shape"/>
<feColorMatrix in="SourceAlpha" type="matrix" values="0 0 0 0 0 0 0 0 0 0 0 0 0 0 0 0 0 0 127 0" result="hardAlpha"/>
<feOffset dy="2"/>
<feGaussianBlur stdDeviation="3"/>
<feComposite in2="hardAlpha" operator="arithmetic" k2="-1" k3="1"/>
<feColorMatrix type="matrix" values="0 0 0 0 0 0 0 0 0 0 0 0 0 0 0 0 0 0 0.25 0"/>
<feBlend mode="normal" in2="shape" result="effect1_innerShadow_2131_8"/>
</filter>
</defs>
</svg>
