<svg width="373" height="92" viewBox="0 0 373 92" fill="none" xmlns="http://www.w3.org/2000/svg">
<path d="M14.6 91.1C12 91.1 9.4 90.6667 6.8 89.8C4.2 88.9333 2.03333 87.7333 0.3 86.2L5.3 77C6.56667 78.1333 8 79.0333 9.6 79.7C11.2 80.3667 12.8333 80.7 14.5 80.7C16.7667 80.7 18.6 80.1333 20 79C21.4 77.8667 22.7 75.9667 23.9 73.3L27 66.3L28 64.8L48.2 17.6H60.2L35.2 75.3C33.5333 79.3 31.6667 82.4667 29.6 84.8C27.6 87.1333 25.3333 88.7667 22.8 89.7C20.3333 90.6333 17.6 91.1 14.6 91.1ZM25.6 72.9L1.5 17.6H14.5L34.1 63.7L25.6 72.9ZM99.2523 71V60.2L98.5523 57.9V39C98.5523 35.3333 97.4523 32.5 95.2523 30.5C93.0523 28.4333 89.719 27.4 85.2523 27.4C82.2523 27.4 79.2857 27.8667 76.3523 28.8C73.4857 29.7333 71.0523 31.0333 69.0523 32.7L64.1523 23.6C67.019 21.4 70.419 19.7667 74.3523 18.7C78.3523 17.5667 82.4857 17 86.7523 17C94.4857 17 100.452 18.8667 104.652 22.6C108.919 26.2667 111.052 31.9667 111.052 39.7V71H99.2523ZM82.4523 71.7C78.4523 71.7 74.9523 71.0333 71.9523 69.7C68.9523 68.3 66.619 66.4 64.9523 64C63.3523 61.5333 62.5523 58.7667 62.5523 55.7C62.5523 52.7 63.2523 50 64.6523 47.6C66.119 45.2 68.4857 43.3 71.7523 41.9C75.019 40.5 79.3523 39.8 84.7523 39.8H100.252V48.1H85.6523C81.3857 48.1 78.519 48.8 77.0523 50.2C75.5857 51.5333 74.8523 53.2 74.8523 55.2C74.8523 57.4667 75.7523 59.2667 77.5523 60.6C79.3523 61.9333 81.8523 62.6 85.0523 62.6C88.119 62.6 90.8523 61.9 93.2523 60.5C95.719 59.1 97.4857 57.0333 98.5523 54.3L100.652 61.8C99.4523 64.9333 97.2857 67.3667 94.1523 69.1C91.0857 70.8333 87.1857 71.7 82.4523 71.7ZM130.518 91.1C127.918 91.1 125.318 90.6667 122.718 89.8C120.118 88.9333 117.951 87.7333 116.218 86.2L121.218 77C122.485 78.1333 123.918 79.0333 125.518 79.7C127.118 80.3667 128.751 80.7 130.418 80.7C132.685 80.7 134.518 80.1333 135.918 79C137.318 77.8667 138.618 75.9667 139.818 73.3L142.918 66.3L143.918 64.8L164.118 17.6H176.118L151.118 75.3C149.451 79.3 147.585 82.4667 145.518 84.8C143.518 87.1333 141.251 88.7667 138.718 89.7C136.251 90.6333 133.518 91.1 130.518 91.1ZM141.518 72.9L117.418 17.6H130.418L150.018 63.7L141.518 72.9ZM215.17 71V60.2L214.47 57.9V39C214.47 35.3333 213.37 32.5 211.17 30.5C208.97 28.4333 205.637 27.4 201.17 27.4C198.17 27.4 195.204 27.8667 192.27 28.8C189.404 29.7333 186.97 31.0333 184.97 32.7L180.07 23.6C182.937 21.4 186.337 19.7667 190.27 18.7C194.27 17.5667 198.404 17 202.67 17C210.404 17 216.37 18.8667 220.57 22.6C224.837 26.2667 226.97 31.9667 226.97 39.7V71H215.17ZM198.37 71.7C194.37 71.7 190.87 71.0333 187.87 69.7C184.87 68.3 182.537 66.4 180.87 64C179.27 61.5333 178.47 58.7667 178.47 55.7C178.47 52.7 179.17 50 180.57 47.6C182.037 45.2 184.404 43.3 187.67 41.9C190.937 40.5 195.27 39.8 200.67 39.8H216.17V48.1H201.57C197.304 48.1 194.437 48.8 192.97 50.2C191.504 51.5333 190.77 53.2 190.77 55.2C190.77 57.4667 191.67 59.2667 193.47 60.6C195.27 61.9333 197.77 62.6 200.97 62.6C204.037 62.6 206.77 61.9 209.17 60.5C211.637 59.1 213.404 57.0333 214.47 54.3L216.57 61.8C215.37 64.9333 213.204 67.3667 210.07 69.1C207.004 70.8333 203.104 71.7 198.37 71.7ZM276.913 72C271.446 72 266.413 71.1333 261.813 69.4C257.279 67.6 253.313 65.1 249.913 61.9C246.513 58.6333 243.879 54.8 242.013 50.4C240.146 46 239.213 41.2 239.213 36C239.213 30.8 240.146 26 242.013 21.6C243.879 17.2 246.513 13.4 249.913 10.2C253.379 6.93333 257.413 4.43333 262.013 2.7C266.613 0.899997 271.646 -3.8147e-06 277.113 -3.8147e-06C283.046 -3.8147e-06 288.379 0.966662 293.113 2.89999C297.913 4.83333 301.946 7.66667 305.213 11.4L297.013 19.4C294.279 16.6667 291.313 14.6667 288.113 13.4C284.979 12.0667 281.513 11.4 277.713 11.4C274.046 11.4 270.646 12 267.513 13.2C264.379 14.4 261.679 16.1 259.413 18.3C257.146 20.5 255.379 23.1 254.113 26.1C252.913 29.1 252.313 32.4 252.313 36C252.313 39.5333 252.913 42.8 254.113 45.8C255.379 48.8 257.146 51.4333 259.413 53.7C261.679 55.9 264.346 57.6 267.413 58.8C270.479 60 273.879 60.6 277.613 60.6C281.079 60.6 284.413 60.0667 287.612 59C290.879 57.8667 293.979 56 296.913 53.4L304.313 63.1C300.646 66.0333 296.379 68.2667 291.513 69.8C286.713 71.2667 281.846 72 276.913 72ZM292.013 61.4V35.2H304.313V63.1L292.013 61.4ZM344.259 71.7C338.792 71.7 333.925 70.5333 329.659 68.2C325.392 65.8 322.025 62.5333 319.559 58.4C317.092 54.2667 315.859 49.5667 315.859 44.3C315.859 38.9667 317.092 34.2667 319.559 30.2C322.025 26.0667 325.392 22.8333 329.659 20.5C333.925 18.1667 338.792 17 344.259 17C349.792 17 354.692 18.1667 358.959 20.5C363.292 22.8333 366.659 26.0333 369.059 30.1C371.525 34.1667 372.759 38.9 372.759 44.3C372.759 49.5667 371.525 54.2667 369.059 58.4C366.659 62.5333 363.292 65.8 358.959 68.2C354.692 70.5333 349.792 71.7 344.259 71.7ZM344.259 61C347.325 61 350.059 60.3333 352.459 59C354.859 57.6667 356.725 55.7333 358.059 53.2C359.459 50.6667 360.159 47.7 360.159 44.3C360.159 40.8333 359.459 37.8667 358.059 35.4C356.725 32.8667 354.859 30.9333 352.459 29.6C350.059 28.2667 347.359 27.6 344.359 27.6C341.292 27.6 338.559 28.2667 336.159 29.6C333.825 30.9333 331.959 32.8667 330.559 35.4C329.159 37.8667 328.459 40.8333 328.459 44.3C328.459 47.7 329.159 50.6667 330.559 53.2C331.959 55.7333 333.825 57.6667 336.159 59C338.559 60.3333 341.259 61 344.259 61Z" fill="white"/>
</svg>
